<svg t="1727417890670" class="icon" viewBox="0 0 1024 1024" version="1.1" xmlns="http://www.w3.org/2000/svg" p-id="5854" width="128" height="128"><path d="M793.856 623.786667a170.112 170.112 0 0 1-170.112 170.069333H252.032a25.173333 25.173333 0 0 1-25.173333-25.173333v-352.853334a189.013333 189.013333 0 0 1 188.970666-189.013333h352.853334a25.173333 25.173333 0 0 1 25.173333 25.216v63.018667c-0.085333 13.909333-11.349333 25.173333-25.258667 25.173333H415.829333c-41.770667 0-75.648 33.877333-75.605333 75.648v239.36c0 13.952 11.264 25.216 25.173333 25.216h239.445334c41.770667 0 75.605333-33.834667 75.605333-75.605333v-12.586667a25.173333 25.173333 0 0 0-25.173333-25.173333h-176.469334a25.173333 25.173333 0 0 1-25.173333-25.216v-63.018667c0-13.909333 11.306667-25.173333 25.216-25.173333h289.834667a25.173333 25.173333 0 0 1 25.173333 25.173333v144.896zM510.336 0C228.48 0 0.042667 228.48 0.042667 510.293333s228.437333 510.336 510.293333 510.336c281.856 0 510.336-228.48 510.336-510.293333C1020.672 228.437333 792.192 0 510.378667 0z" fill="#FFFFFF" p-id="5855"></path></svg>